<svg width="16" height="17" viewBox="0 0 16 17" fill="none" xmlns="http://www.w3.org/2000/svg">
<g clip-path="url(#clip0_615_838)">
<path d="M8 1.38867C6.59355 1.38867 5.21869 1.80573 4.04928 2.58711C2.87986 3.36849 1.96841 4.47909 1.43019 5.77848C0.891967 7.07786 0.751143 8.50767 1.02553 9.88709C1.29991 11.2665 1.97718 12.5336 2.97168 13.5281C3.96619 14.5226 5.23327 15.1999 6.61269 15.4743C7.99211 15.7486 9.42192 15.6078 10.7213 15.0696C12.0207 14.5314 13.1313 13.6199 13.9127 12.4505C14.6941 11.2811 15.1111 9.90623 15.1111 8.49978C15.1111 6.6138 14.3619 4.80506 13.0283 3.47147C11.6947 2.13788 9.88598 1.38867 8 1.38867ZM8 14.722C6.76936 14.722 5.56636 14.3571 4.54312 13.6734C3.51988 12.9897 2.72236 12.0179 2.25142 10.8809C1.78047 9.74396 1.65725 8.49288 1.89734 7.28589C2.13742 6.07889 2.73003 4.9702 3.60022 4.10001C4.47042 3.22981 5.57911 2.6372 6.7861 2.39712C7.9931 2.15703 9.24418 2.28025 10.3811 2.7512C11.5181 3.22214 12.4899 4.01966 13.1736 5.0429C13.8573 6.06614 14.2222 7.26914 14.2222 8.49978C14.2222 10.15 13.5667 11.7327 12.3998 12.8996C11.2329 14.0665 9.65024 14.722 8 14.722Z" fill="#939CAE"/>
<path d="M8.40888 8.67745V5.27745C8.40888 5.15958 8.36205 5.04653 8.2787 4.96318C8.19535 4.87983 8.08231 4.83301 7.96443 4.83301C7.84656 4.83301 7.73351 4.87983 7.65016 4.96318C7.56681 5.04653 7.51999 5.15958 7.51999 5.27745V9.15301L10.1422 10.9308C10.1905 10.9671 10.2457 10.9932 10.3045 11.0075C10.3632 11.0217 10.4242 11.0239 10.4838 11.0138C10.5434 11.0036 10.6003 10.9815 10.651 10.9486C10.7017 10.9157 10.7452 10.8729 10.7788 10.8226C10.8124 10.7724 10.8354 10.7158 10.8464 10.6564C10.8574 10.597 10.8561 10.5359 10.8427 10.477C10.8293 10.418 10.804 10.3625 10.7684 10.3136C10.7328 10.2648 10.6876 10.2238 10.6355 10.193L8.40888 8.67745Z" fill="#939CAE"/>
<path d="M3.55555 8.47317C3.55149 7.67363 3.76448 6.88798 4.17183 6.19997C4.57918 5.51197 5.16561 4.94742 5.86859 4.5665C6.57157 4.18559 7.36475 4.0026 8.16356 4.03703C8.96236 4.07147 9.73685 4.32205 10.4044 4.76206L10.7822 4.15761C10.1481 3.74223 9.42986 3.47246 8.67908 3.36765C7.92831 3.26285 7.16364 3.32563 6.44001 3.55148C5.71638 3.77733 5.05176 4.16064 4.49388 4.67388C3.936 5.18712 3.49871 5.81754 3.21343 6.51987C2.92815 7.22219 2.80197 7.97898 2.84393 8.73587C2.8859 9.49277 3.09498 10.231 3.45615 10.8975C3.81732 11.5639 4.32162 12.1422 4.93282 12.5906C5.54402 13.039 6.24695 13.3465 6.99111 13.4909L7.11111 12.8109C6.11021 12.6066 5.21024 12.0638 4.56267 11.2737C3.91509 10.4837 3.55943 9.49469 3.55555 8.47317Z" fill="#939CAE"/>
</g>
<defs>
<clipPath id="clip0_615_838">
<rect width="16" height="16" fill="white" transform="translate(0 0.5)"/>
</clipPath>
</defs>
</svg>
