<svg width="48" height="48" viewBox="0 0 48 48" fill="none" xmlns="http://www.w3.org/2000/svg">
<path d="M18 24C20.3869 24 22.6761 23.0518 24.364 21.364C26.0518 19.6761 27 17.3869 27 15C27 12.6131 26.0518 10.3239 24.364 8.63604C22.6761 6.94821 20.3869 6 18 6C15.6131 6 13.3239 6.94821 11.636 8.63604C9.94821 10.3239 9 12.6131 9 15C9 17.3869 9.94821 19.6761 11.636 21.364C13.3239 23.0518 15.6131 24 18 24ZM3 42C3 42 0 42 0 39C0 36 3 27 18 27C33 27 36 36 36 39C36 42 33 42 33 42H3ZM33 10.5C33 10.1022 33.158 9.72064 33.4393 9.43934C33.7206 9.15804 34.1022 9 34.5 9H46.5C46.8978 9 47.2794 9.15804 47.5607 9.43934C47.842 9.72064 48 10.1022 48 10.5C48 10.8978 47.842 11.2794 47.5607 11.5607C47.2794 11.842 46.8978 12 46.5 12H34.5C34.1022 12 33.7206 11.842 33.4393 11.5607C33.158 11.2794 33 10.8978 33 10.5ZM34.5 18C34.1022 18 33.7206 18.158 33.4393 18.4393C33.158 18.7206 33 19.1022 33 19.5C33 19.8978 33.158 20.2794 33.4393 20.5607C33.7206 20.842 34.1022 21 34.5 21H46.5C46.8978 21 47.2794 20.842 47.5607 20.5607C47.842 20.2794 48 19.8978 48 19.5C48 19.1022 47.842 18.7206 47.5607 18.4393C47.2794 18.158 46.8978 18 46.5 18H34.5ZM40.5 27C40.1022 27 39.7206 27.158 39.4393 27.4393C39.158 27.7206 39 28.1022 39 28.5C39 28.8978 39.158 29.2794 39.4393 29.5607C39.7206 29.842 40.1022 30 40.5 30H46.5C46.8978 30 47.2794 29.842 47.5607 29.5607C47.842 29.2794 48 28.8978 48 28.5C48 28.1022 47.842 27.7206 47.5607 27.4393C47.2794 27.158 46.8978 27 46.5 27H40.5ZM40.5 36C40.1022 36 39.7206 36.158 39.4393 36.4393C39.158 36.7206 39 37.1022 39 37.5C39 37.8978 39.158 38.2794 39.4393 38.5607C39.7206 38.842 40.1022 39 40.5 39H46.5C46.8978 39 47.2794 38.842 47.5607 38.5607C47.842 38.2794 48 37.8978 48 37.5C48 37.1022 47.842 36.7206 47.5607 36.4393C47.2794 36.158 46.8978 36 46.5 36H40.5Z" fill="#6779A6"/>
</svg>
