<svg width="23" height="33" viewBox="0 0 23 33" fill="none" xmlns="http://www.w3.org/2000/svg">
<g clip-path="url(#clip0_422_794)">
<path d="M5.7373 32.625C8.7388 32.625 11.1748 30.189 11.1748 27.1875V21.75H5.7373C2.7358 21.75 0.299805 24.186 0.299805 27.1875C0.299805 30.189 2.7358 32.625 5.7373 32.625Z" fill="#6779A6"/>
<path d="M0.299805 16.3125C0.299805 13.311 2.7358 10.875 5.7373 10.875H11.1748V21.75H5.7373C2.7358 21.75 0.299805 19.314 0.299805 16.3125Z" fill="#C7D1E7"/>
<path d="M11 1H16.5C19.536 1 22 3.24 22 6C22 8.76 19.536 11 16.5 11H11V1Z" fill="#C7D1E7"/>
<path d="M22.0498 16.3125C22.0498 19.314 19.6138 21.75 16.6123 21.75C13.6108 21.75 11.1748 19.314 11.1748 16.3125C11.1748 13.311 13.6108 10.875 16.6123 10.875C19.6138 10.875 22.0498 13.311 22.0498 16.3125Z" fill="#6779A6"/>
<path d="M0.299805 5.9375C0.299805 3.212 2.7358 1 5.7373 1H11.1748V10.875H5.7373C2.7358 10.875 0.299805 8.663 0.299805 5.9375Z" fill="#6779A6"/>
</g>
<defs>
<clipPath id="clip0_422_794">
<rect width="21.75" height="32.625" fill="white" transform="translate(0.299805)"/>
</clipPath>
</defs>
</svg>
