<svg width="22" height="18" viewBox="0 0 22 18" fill="none" xmlns="http://www.w3.org/2000/svg">
<path d="M13.514 3.375H18.9892C19.3714 3.37497 19.7493 3.4401 20.099 3.56624C20.4486 3.69238 20.7623 3.87676 21.02 4.10762C21.2777 4.33848 21.4738 4.61076 21.5957 4.90707C21.7177 5.20339 21.7628 5.51725 21.7282 5.82863L20.8523 13.7036C20.7902 14.2627 20.475 14.7825 19.9685 15.1611C19.462 15.5397 18.8008 15.7498 18.1147 15.75H3.88484C3.19877 15.7498 2.53757 15.5397 2.03106 15.1611C1.52455 14.7825 1.2093 14.2627 1.14721 13.7036L0.27134 5.82863C0.213916 5.30758 0.380199 4.78646 0.74159 4.35488L0.687965 3.375C0.687965 2.77826 0.977696 2.20597 1.49342 1.78401C2.00915 1.36205 2.70862 1.125 3.43796 1.125H8.48696C9.21625 1.12513 9.91561 1.36226 10.4312 1.78425L11.5697 2.71575C12.0853 3.13774 12.7847 3.37487 13.514 3.375ZM2.07121 3.51C2.36638 3.42075 2.67988 3.37575 3.01171 3.375H10.4312L9.45909 2.57963C9.20129 2.36863 8.85161 2.25006 8.48696 2.25H3.43796C3.07777 2.24995 2.73194 2.36553 2.47481 2.57191C2.21769 2.77829 2.06981 3.05898 2.06296 3.35362L2.07121 3.51Z" fill="#ADB7CF"/>
</svg>
