<svg width="49" height="49" viewBox="0 0 49 49" fill="none" xmlns="http://www.w3.org/2000/svg">
<path d="M45.9375 16.8879C45.8607 19.5535 44.7646 22.0882 42.875 23.9699L36.2236 30.6251C35.2549 31.5991 34.1026 32.3713 32.8334 32.897C31.5642 33.4227 30.2033 33.6914 28.8296 33.6876H28.82C27.4228 33.6866 26.04 33.4056 24.7532 32.8612C23.4664 32.3168 22.3018 31.5201 21.3281 30.518C20.3545 29.516 19.5915 28.329 19.0842 27.0271C18.577 25.7252 18.3359 24.3349 18.375 22.9382C18.3864 22.5321 18.5587 22.1472 18.8539 21.8681C19.1492 21.589 19.5432 21.4386 19.9493 21.45C20.3554 21.4615 20.7404 21.6337 21.0195 21.929C21.2985 22.2242 21.4489 22.6182 21.4375 23.0243C21.4096 24.0119 21.58 24.995 21.9385 25.9155C22.297 26.8361 22.8364 27.6754 23.5248 28.384C24.2132 29.0926 25.0366 29.656 25.9464 30.0409C26.8563 30.4258 27.834 30.6245 28.8219 30.6251C29.7931 30.6275 30.755 30.4374 31.6522 30.0658C32.5495 29.6943 33.3642 29.1486 34.0492 28.4603L40.7006 21.8089C42.0729 20.4193 42.8397 18.5432 42.8336 16.5902C42.8275 14.6373 42.049 12.766 40.668 11.385C39.287 10.004 37.4158 9.2255 35.4628 9.21939C33.5098 9.21328 31.6337 9.98009 30.2441 11.3524L28.1386 13.4579C27.8491 13.7329 27.4636 13.884 27.0643 13.8789C26.6651 13.8738 26.2836 13.7129 26.0012 13.4305C25.7188 13.1481 25.5579 12.7666 25.5528 12.3673C25.5477 11.9681 25.6988 11.5826 25.9738 11.2931L28.0793 9.18759C29.0507 8.21588 30.204 7.44505 31.4733 6.91915C32.7426 6.39324 34.1032 6.12256 35.4771 6.12256C36.8511 6.12256 38.2116 6.39324 39.481 6.91915C40.7503 7.44505 41.9036 8.21588 42.875 9.18759C43.8811 10.1962 44.6715 11.399 45.198 12.7228C45.7245 14.0466 45.9761 15.4637 45.9375 16.8879ZM20.8633 35.5366L18.7578 37.642C18.0711 38.3334 17.2539 38.8814 16.3535 39.254C15.4532 39.6266 14.4877 39.8165 13.5133 39.8126C12.0515 39.8114 10.6229 39.377 9.40792 38.5642C8.19296 37.7514 7.24617 36.5968 6.68718 35.2461C6.12819 33.8954 5.98209 32.4094 6.26734 30.9757C6.55259 29.542 7.25638 28.2251 8.2898 27.1913L14.9297 20.5399C15.9755 19.4886 17.3133 18.776 18.7693 18.4947C20.2253 18.2134 21.7322 18.3764 23.0944 18.9626C24.4565 19.5487 25.611 20.5309 26.4078 21.7816C27.2046 23.0322 27.6069 24.4936 27.5625 25.9758C27.5511 26.3819 27.7014 26.776 27.9805 27.0712C28.2596 27.3664 28.6446 27.5387 29.0507 27.5501C29.4568 27.5616 29.8508 27.4112 30.146 27.1321C30.4413 26.853 30.6136 26.4681 30.625 26.062C30.6618 24.6401 30.4093 23.2255 29.8828 21.9042C29.3564 20.5828 28.567 19.3822 27.5625 18.3751C25.6009 16.4144 22.941 15.3129 20.1675 15.3129C17.394 15.3129 14.7341 16.4144 12.7725 18.3751L6.12499 25.0265C4.66309 26.4878 3.66718 28.3496 3.26311 30.3768C2.85904 32.4039 3.06495 34.5054 3.85482 36.4155C4.64469 38.3257 5.98307 39.9588 7.70082 41.1085C9.41857 42.2583 11.4386 42.873 13.5056 42.8751C14.8797 42.8791 16.2409 42.6104 17.5104 42.0847C18.7799 41.5591 19.9325 40.7868 20.9016 39.8126L23.007 37.7071C23.2548 37.4152 23.3843 37.0411 23.3699 36.6585C23.3555 36.2759 23.1982 35.9125 22.9292 35.6401C22.6601 35.3677 22.2988 35.2059 21.9163 35.1868C21.5339 35.1676 21.1582 35.2924 20.8633 35.5366Z" fill="#C7D1E7"/>
</svg>
