<svg width="12" height="16" viewBox="0 0 12 16" fill="none" xmlns="http://www.w3.org/2000/svg">
<path d="M5.00624 12.2503L9.00833 8.24824L7.98124 7.22116L4.98854 10.2139L3.50104 8.72637L2.49166 9.73574L5.00624 12.2503ZM1.49999 15.0837C1.11041 15.0837 0.777023 14.9451 0.499828 14.6679C0.222634 14.3907 0.0838005 14.057 0.0833282 13.667V2.33366C0.0833282 1.94408 0.222161 1.61069 0.499828 1.33349C0.777495 1.0563 1.11088 0.917464 1.49999 0.916992H7.16666L11.4167 5.16699V13.667C11.4167 14.0566 11.2781 14.3902 11.0009 14.6679C10.7237 14.9455 10.39 15.0841 9.99999 15.0837H1.49999ZM6.45833 5.87533V2.33366H1.49999V13.667H9.99999V5.87533H6.45833Z" fill="#767676"/>
</svg>
