<svg width="24" height="24" viewBox="0 0 32 32" fill="none" xmlns="http://www.w3.org/2000/svg">
<g clip-path="url(#clip0_616_893)">
<path d="M16 30C12.287 30 8.72601 28.525 6.1005 25.8995C3.475 23.274 2 19.713 2 16C2 12.287 3.475 8.72601 6.1005 6.1005C8.72601 3.475 12.287 2 16 2C19.713 2 23.274 3.475 25.8995 6.1005C28.525 8.72601 30 12.287 30 16C30 19.713 28.525 23.274 25.8995 25.8995C23.274 28.525 19.713 30 16 30ZM16 32C20.2435 32 24.3131 30.3143 27.3137 27.3137C30.3143 24.3131 32 20.2435 32 16C32 11.7565 30.3143 7.68687 27.3137 4.68629C24.3131 1.68571 20.2435 0 16 0C11.7565 0 7.68687 1.68571 4.68629 4.68629C1.68571 7.68687 0 11.7565 0 16C0 20.2435 1.68571 24.3131 4.68629 27.3137C7.68687 30.3143 11.7565 32 16 32Z" fill="#131313"/>
<path d="M9.29208 9.29196C9.38497 9.19883 9.49532 9.12494 9.61681 9.07453C9.7383 9.02412 9.86854 8.99817 10.0001 8.99817C10.1316 8.99817 10.2619 9.02412 10.3833 9.07453C10.5048 9.12494 10.6152 9.19883 10.7081 9.29196L16.0001 14.586L21.2921 9.29196C21.3851 9.19898 21.4954 9.12523 21.6169 9.07491C21.7384 9.02459 21.8686 8.99869 22.0001 8.99869C22.1316 8.99869 22.2618 9.02459 22.3832 9.07491C22.5047 9.12523 22.6151 9.19898 22.7081 9.29196C22.8011 9.38493 22.8748 9.49531 22.9251 9.61679C22.9754 9.73827 23.0013 9.86847 23.0013 9.99996C23.0013 10.1314 22.9754 10.2616 22.9251 10.3831C22.8748 10.5046 22.8011 10.615 22.7081 10.708L17.4141 16L22.7081 21.292C22.8011 21.3849 22.8748 21.4953 22.9251 21.6168C22.9754 21.7383 23.0013 21.8685 23.0013 22C23.0013 22.1314 22.9754 22.2616 22.9251 22.3831C22.8748 22.5046 22.8011 22.615 22.7081 22.708C22.6151 22.8009 22.5047 22.8747 22.3832 22.925C22.2618 22.9753 22.1316 23.0012 22.0001 23.0012C21.8686 23.0012 21.7384 22.9753 21.6169 22.925C21.4954 22.8747 21.3851 22.8009 21.2921 22.708L16.0001 17.414L10.7081 22.708C10.6151 22.8009 10.5047 22.8747 10.3832 22.925C10.2618 22.9753 10.1316 23.0012 10.0001 23.0012C9.86859 23.0012 9.73839 22.9753 9.61691 22.925C9.49543 22.8747 9.38505 22.8009 9.29208 22.708C9.1991 22.615 9.12535 22.5046 9.07503 22.3831C9.02471 22.2616 8.99881 22.1314 8.99881 22C8.99881 21.8685 9.02471 21.7383 9.07503 21.6168C9.12535 21.4953 9.1991 21.3849 9.29208 21.292L14.5861 16L9.29208 10.708C9.19895 10.6151 9.12507 10.5047 9.07465 10.3832C9.02424 10.2617 8.99829 10.1315 8.99829 9.99996C8.99829 9.86842 9.02424 9.73818 9.07465 9.61669C9.12507 9.4952 9.19895 9.38485 9.29208 9.29196Z" fill="#131313"/>
</g>
<defs>
<clipPath id="clip0_616_893">
<rect width="32" height="32" fill="white"/>
</clipPath>
</defs>
</svg>
